# xmcd CD database file generated by Grip 3.3.1
# 
# Track frame offsets:
#       150
#       19370
#       35032
#       54680
#       89565
#       95850
#       111375
#       132075
#       155430
#       166245
#       178012
#       207250
# 
# Disc length: 3919 seconds
# 
# Revision: 1
# Processed by: cddbd v1.5.2PL0 Copyright (c) Steve Scherf et al.
# Submitted via: Grip 3.3.1
# 
DISCID=ad0f4d0c
DTITLE=Orchester der Deutschen Oper Berlin - Christian Thielemann - Scho
DTITLE=enberg - Pelleas und Melisande, Wagner - Siegfried-Idyll
DYEAR=2000
DGENRE=Classical
TTITLE0=1. Die Achtel ein wenig bewegt - Pelleas und Melisande Op.5 (Arno
TTITLE0=ld Schönberg)
TTITLE1=2. Heftig - Pelleas und Melisande Op.5 (Arnold Schönberg)
TTITLE2=3. Figure 9: lebhaft - Pelleas und Melisande Op.5 (Arnold Schönb
TTITLE2=erg)
TTITLE3=4. Figure 16: sehr rasch - Pelleas und Melisande Op.5 (Arnold Sch
TTITLE3=önberg)
TTITLE4=5. Figure 33: ein wenig bewegt - Pelleas und Melisande Op.5 (Arno
TTITLE4=ld Schönberg)
TTITLE5=6. Figure 36: langsam - Pelleas und Melisande Op.5 (Arnold Schön
TTITLE5=berg)
TTITLE6=7. Figure 43: ein wenig bewegter - Pelleas und Melisande Op.5 (Ar
TTITLE6=nold Schönberg)
TTITLE7=8. Figure 50: sehr langsam - Pelleas und Melisande Op.5 (Arnold S
TTITLE7=chönberg)
TTITLE8=9. Figure 55: etwas bewegt - Pelleas und Melisande Op.5 (Arnold S
TTITLE8=chönberg)
TTITLE9=10. Figure 59: in gehender Bewegung - Pelleas und Melisande Op.5 
TTITLE9=(Arnold Schönberg)
TTITLE10=11. Figure 62: breit - Pelleas und Melisande Op.5 (Arnold Schönb
TTITLE10=erg)
TTITLE11=Siegfried-Idyll (Richard Wagner)
EXTD=
EXTT0=
EXTT1=
EXTT2=
EXTT3=
EXTT4=
EXTT5=
EXTT6=
EXTT7=
EXTT8=
EXTT9=
EXTT10=
EXTT11=
PLAYORDER=
